<?xml version="1.0" standalone="no"?>
<!DOCTYPE svg PUBLIC "-//W3C//DTD SVG 20010904//EN"
 "http://www.w3.org/TR/2001/REC-SVG-20010904/DTD/svg10.dtd">
<svg version="1.0" xmlns="http://www.w3.org/2000/svg"
 width="1024.000000pt" height="1024.000000pt" viewBox="0 0 1024.000000 1024.000000"
 preserveAspectRatio="xMidYMid meet">

<g transform="translate(0.000000,1024.000000) scale(0.100000,-0.100000)"
fill="#000000" stroke="none">
<path d="M4973 7369 c-360 -27 -733 -178 -1003 -405 -378 -317 -610 -770 -639
-1252 -20 -333 41 -630 189 -927 92 -185 178 -303 330 -455 176 -176 339 -288
555 -380 942 -402 2024 51 2391 1002 41 105 87 289 104 413 18 136 9 432 -19
567 -162 799 -815 1375 -1631 1438 -137 10 -131 11 -277 -1z m298 -49 c533
-54 992 -321 1287 -748 105 -151 207 -380 257 -576 52 -205 59 -536 15 -741
-99 -464 -355 -848 -738 -1106 -515 -346 -1175 -391 -1737 -119 -522 253 -871
731 -960 1315 -20 129 -20 371 0 500 99 647 553 1188 1168 1390 238 78 485
107 708 85z"/>
<path d="M4538 6564 c-231 -55 -370 -234 -371 -474 0 -192 80 -374 258 -590
130 -156 398 -396 618 -554 l78 -55 72 51 c241 171 522 427 660 601 131 166
213 352 224 509 20 292 -198 525 -492 527 -170 2 -347 -91 -432 -224 -15 -25
-30 -45 -33 -45 -3 0 -16 19 -30 41 -14 23 -49 63 -79 91 -126 116 -307 163
-473 122z m1161 -299 c105 -58 159 -158 148 -277 -7 -77 -40 -142 -102 -203
-44 -43 -53 -59 -64 -110 -30 -140 -144 -286 -305 -390 -133 -86 -243 -117
-335 -95 -74 17 -128 61 -158 126 l-24 54 -31 -16 c-45 -23 -68 -8 -110 72
-54 105 -63 140 -44 169 20 30 54 32 88 5 l25 -19 18 64 c23 86 63 141 114
156 61 18 111 -9 157 -87 11 -18 12 -18 32 -1 17 16 18 22 9 48 -14 36 4 75
45 99 22 12 33 12 59 3 l31 -12 -6 34 c-4 22 -2 45 7 62 8 15 17 58 20 95 11
118 53 182 152 230 54 26 68 29 140 26 65 -3 90 -10 134 -33z"/>
<path d="M5487 6260 c-66 -17 -160 -93 -140 -114 14 -14 109 -5 139 13 23 14
35 16 43 8 8 -8 18 -6 38 9 32 24 69 72 61 79 -11 11 -104 14 -141 5z"/>
<path d="M5646 6205 c-30 -38 -110 -90 -125 -80 -6 3 -33 -2 -61 -11 -40 -13
-59 -14 -92 -6 -23 6 -45 9 -48 6 -2 -3 -6 -39 -8 -79 -3 -47 -9 -79 -18 -86
-24 -20 -17 -58 14 -70 25 -10 26 -12 10 -23 -10 -7 -18 -20 -18 -29 0 -22 54
-64 96 -76 40 -11 120 0 153 21 15 9 23 10 32 1 17 -17 4 -30 -52 -48 -73 -25
-156 -17 -202 18 -20 15 -38 23 -42 17 -5 -9 40 -110 50 -110 2 0 27 9 55 20
69 27 111 26 139 -4 24 -25 25 -82 1 -111 -42 -50 -217 -91 -270 -63 -33 18
-65 67 -85 131 -9 29 -18 58 -21 65 -3 9 -9 10 -23 3 -18 -10 -17 -14 16 -77
31 -58 36 -78 41 -155 4 -84 4 -89 -15 -89 -18 0 -20 7 -20 68 2 118 -36 202
-96 217 -38 10 -88 -19 -172 -97 l-73 -68 -37 45 c-37 45 -75 60 -75 29 0 -24
64 -157 84 -173 21 -18 39 -9 145 70 42 32 79 55 84 52 13 -8 -12 -40 -63 -79
-59 -45 -62 -62 -21 -126 97 -152 330 -104 559 116 91 87 141 172 163 276 10
46 20 63 64 105 130 126 124 338 -13 417 l-30 18 -26 -35z m-258 -237 c-3 -7
-15 -13 -28 -13 -13 0 -25 6 -27 13 -3 8 6 12 27 12 21 0 30 -4 28 -12z m294
-25 c10 -9 18 -23 18 -32 0 -26 -37 -79 -60 -86 -35 -11 -36 3 0 39 21 22 30
40 26 51 -4 12 -10 14 -25 5 -11 -5 -22 -10 -25 -10 -11 0 -6 26 6 38 17 17
38 15 60 -5z"/>
<path d="M5174 5829 c-31 -11 -36 -44 -12 -74 11 -14 27 -51 35 -82 17 -65 44
-123 67 -142 27 -22 120 -15 187 15 74 34 96 60 72 86 -22 24 -78 23 -148 -3
-31 -12 -58 -19 -60 -17 -14 15 -76 153 -74 166 1 9 1 22 0 28 -2 17 -44 32
-67 23z"/>
<path d="M4907 5759 c-21 -13 -51 -70 -67 -129 -6 -25 -14 -54 -17 -64 -4 -13
15 -2 53 33 33 28 80 62 106 74 53 25 59 43 25 75 -25 23 -70 28 -100 11z"/>
<path d="M3803 5890 c-42 -17 -45 -37 -41 -333 l3 -282 42 -95 c145 -331 174
-395 196 -424 14 -18 101 -91 193 -161 274 -211 337 -281 350 -391 9 -85 13
-94 36 -94 20 0 20 4 16 70 -11 150 -79 233 -376 458 -89 68 -171 136 -181
151 -15 21 -175 373 -216 476 -10 26 -24 477 -16 535 7 54 26 61 69 25 42 -35
60 -90 72 -227 6 -65 16 -132 21 -150 7 -28 6 -35 -10 -48 -31 -23 -42 -64
-29 -102 26 -76 122 -210 232 -326 63 -66 129 -145 146 -176 31 -55 55 -70 66
-42 13 34 -70 151 -211 296 -114 118 -203 259 -183 293 14 26 52 37 89 27 57
-17 107 -60 184 -161 95 -124 130 -152 285 -229 329 -163 440 -332 440 -670 0
-97 3 -122 16 -135 14 -14 19 -14 30 -3 16 17 1 297 -21 382 -54 204 -181 340
-440 470 -153 77 -181 99 -259 200 -57 74 -60 82 -87 203 -31 138 -44 165 -93
194 -28 16 -34 27 -40 65 -14 104 -71 173 -132 161 -14 -2 -29 2 -36 11 -13
15 -70 43 -85 41 -4 0 -18 -4 -30 -9z m214 -140 c14 -28 30 -96 43 -179 24
-162 24 -151 1 -151 -37 0 -43 19 -66 205 -8 66 -18 133 -21 149 -10 44 17 29
43 -24z m146 -295 c10 -43 16 -80 14 -82 -2 -2 -13 4 -25 14 -15 13 -24 39
-31 90 -14 95 -14 102 8 77 9 -12 25 -57 34 -99z"/>
<path d="M6370 5893 c-8 -3 -27 -14 -42 -24 -14 -11 -40 -19 -56 -19 -44 0
-86 -40 -105 -101 -9 -28 -17 -62 -17 -75 0 -13 -6 -28 -12 -33 -7 -6 -28 -22
-45 -37 -35 -27 -40 -42 -78 -206 -21 -93 -25 -100 -94 -186 -39 -49 -84 -98
-100 -110 -15 -11 -86 -49 -158 -84 -207 -103 -310 -194 -384 -343 -21 -44
-44 -107 -50 -140 -11 -60 -27 -336 -21 -355 2 -6 12 -10 22 -10 22 0 27 27
34 210 7 183 46 289 146 403 59 67 144 124 296 200 72 36 145 77 162 92 17 14
69 74 116 133 95 120 151 162 213 162 43 0 63 -14 63 -43 0 -42 -105 -193
-213 -306 -117 -122 -190 -223 -185 -256 6 -39 33 -26 67 34 18 33 89 118 156
189 86 92 137 156 174 219 59 102 64 136 25 182 -14 17 -23 35 -19 40 3 6 12
71 20 145 8 74 19 153 26 175 12 42 62 101 84 101 34 0 37 -25 33 -297 -4
-264 -4 -269 -30 -328 -121 -274 -180 -403 -200 -433 -13 -20 -102 -96 -198
-169 -96 -74 -201 -159 -233 -191 -77 -76 -118 -159 -125 -253 -5 -70 -5 -71
19 -67 21 3 25 10 31 65 15 135 76 207 347 413 90 69 177 141 193 160 15 20
58 103 94 185 36 83 81 185 100 228 48 106 54 155 54 430 0 189 -3 244 -15
266 -17 35 -56 48 -95 34z m-105 -130 c-7 -21 -16 -72 -19 -113 -4 -41 -12
-108 -18 -148 -10 -64 -14 -73 -35 -78 -13 -4 -26 -4 -29 -1 -5 5 20 189 37
268 12 54 43 109 63 109 11 0 12 -6 1 -37z m-146 -282 c-8 -54 -19 -87 -31
-98 -10 -9 -21 -14 -23 -11 -8 7 24 136 42 171 22 44 25 27 12 -62z"/>
<path d="M4760 3490 c-13 -13 -20 -33 -20 -57 0 -32 8 -44 56 -90 31 -29 60
-53 65 -53 5 0 37 26 69 58 68 66 76 97 35 137 -28 29 -51 31 -83 9 -21 -15
-25 -15 -41 0 -24 22 -57 20 -81 -4z"/>
<path d="M3010 3065 l0 -335 210 0 210 0 0 60 0 60 -140 0 -140 0 0 80 0 80
125 0 126 0 -3 58 -3 57 -122 3 -123 3 0 68 0 69 140 7 141 8 -3 56 -3 56
-207 3 -208 2 0 -335z"/>
<path d="M5260 3384 c-98 -36 -180 -124 -201 -219 -17 -77 -7 -200 20 -253 32
-63 88 -120 145 -150 67 -34 204 -43 271 -18 90 35 161 108 180 189 l7 27 -74
0 c-71 0 -75 -1 -97 -31 -76 -103 -231 -89 -290 26 -36 69 -35 164 2 227 62
107 207 117 286 21 28 -34 28 -34 104 -31 l76 3 -20 45 c-26 58 -81 115 -144
148 -64 33 -195 41 -265 16z"/>
<path d="M3660 3234 c-89 -39 -140 -127 -139 -244 0 -85 14 -134 54 -186 32
-41 114 -84 163 -84 43 0 100 24 135 57 l27 27 0 -152 0 -152 70 0 70 0 0 88
c0 48 3 158 6 245 4 87 3 214 -1 282 l-7 125 -69 0 -69 0 0 -37 0 -37 -32 31
c-18 18 -46 37 -61 42 -40 15 -106 13 -147 -5z m178 -134 c57 -35 78 -118 47
-184 -41 -86 -168 -88 -209 -2 -60 128 50 254 162 186z"/>
<path d="M5925 3237 c-62 -21 -92 -45 -115 -91 -33 -69 -29 -76 41 -76 55 0
64 3 89 30 35 37 94 42 128 10 27 -25 30 -70 5 -70 -64 0 -188 -22 -221 -39
-65 -33 -95 -105 -73 -174 36 -107 192 -140 280 -58 l30 28 3 -31 3 -31 70 0
70 0 3 149 c4 230 -15 294 -101 338 -52 26 -156 33 -212 15z m165 -314 c-1
-73 -110 -123 -160 -73 -51 51 2 96 118 99 39 1 42 -1 42 -26z"/>
<path d="M6600 3239 c-14 -6 -40 -24 -57 -42 l-33 -31 0 37 0 37 -75 0 -75 0
0 -255 0 -255 75 0 75 0 0 154 c0 137 2 156 20 178 21 28 92 51 128 41 21 -5
22 -3 22 71 l0 76 -27 -1 c-16 0 -39 -5 -53 -10z"/>
<path d="M6897 3236 c-99 -36 -157 -123 -157 -239 0 -91 15 -139 62 -191 108
-123 337 -104 408 33 11 22 20 43 20 46 0 3 -32 5 -71 5 -61 0 -75 -3 -101
-25 -32 -27 -80 -33 -121 -14 -23 11 -57 57 -57 78 0 8 56 11 180 11 l180 0 0
56 c0 113 -44 188 -134 230 -59 27 -148 31 -209 10z m152 -120 c25 -13 51 -52
51 -76 0 -6 -47 -10 -110 -10 -126 0 -135 7 -76 66 38 38 85 45 135 20z"/>
<path d="M4172 3048 c3 -176 5 -197 25 -234 54 -101 198 -124 283 -44 l30 28
0 -34 0 -34 69 0 c54 0 70 4 75 16 8 21 8 307 -1 412 l-6 82 -68 0 -69 0 0
-165 0 -165 -28 -31 c-23 -25 -36 -32 -71 -33 -35 -1 -47 4 -67 27 -23 27 -24
33 -24 198 l0 169 -76 0 -76 0 4 -192z"/>
<path d="M4790 2985 l0 -255 70 0 70 0 0 255 0 255 -70 0 -70 0 0 -255z"/>
</g>
</svg>
